<?xml version="1.0" encoding="UTF-8" standalone="no"?>
<!DOCTYPE svg PUBLIC "-//W3C//DTD SVG 1.1//EN"
 "http://www.w3.org/Graphics/SVG/1.1/DTD/svg11.dtd">
<!-- Generated by graphviz version 2.40.1 (20161225.0304)
 -->
<!-- Title: dependencies Pages: 1 -->
<svg width="2923pt" height="284pt"
 viewBox="0.00 0.00 2923.00 284.00" xmlns="http://www.w3.org/2000/svg" xmlns:xlink="http://www.w3.org/1999/xlink">
<g id="graph0" class="graph" transform="scale(1 1) rotate(0) translate(4 280)">
<title>dependencies</title>
<polygon fill="#ffffff" stroke="transparent" points="-4,4 -4,-280 2919,-280 2919,4 -4,4"/>
<text text-anchor="start" x="1436.5091" y="-42.4" font-family="sans-serif" font-weight="bold" font-size="14.00" fill="#000000">Legend</text>
<polygon fill="#ffffb3" stroke="transparent" points="1223.5,-10 1223.5,-30 1243.5,-30 1243.5,-10 1223.5,-10"/>
<text text-anchor="start" x="1247.129" y="-15.4" font-family="sans-serif" font-size="14.00" fill="#000000"> &#160;Declarations</text>
<polygon fill="#8dd3c7" stroke="transparent" points="1336.5,-10 1336.5,-30 1356.5,-30 1356.5,-10 1336.5,-10"/>
<text text-anchor="start" x="1360.2251" y="-15.4" font-family="sans-serif" font-size="14.00" fill="#000000"> &#160;Module</text>
<polygon fill="#80b1d3" stroke="transparent" points="1422.5,-10 1422.5,-30 1442.5,-30 1442.5,-10 1422.5,-10"/>
<text text-anchor="start" x="1446.2812" y="-15.4" font-family="sans-serif" font-size="14.00" fill="#000000"> &#160;Bootstrap</text>
<polygon fill="#fdb462" stroke="transparent" points="1519.5,-10 1519.5,-30 1539.5,-30 1539.5,-10 1519.5,-10"/>
<text text-anchor="start" x="1543.1732" y="-15.4" font-family="sans-serif" font-size="14.00" fill="#000000"> &#160;Providers</text>
<polygon fill="#fb8072" stroke="transparent" points="1615.5,-10 1615.5,-30 1635.5,-30 1635.5,-10 1615.5,-10"/>
<text text-anchor="start" x="1639.2258" y="-15.4" font-family="sans-serif" font-size="14.00" fill="#000000"> &#160;Exports</text>
<g id="clust1" class="cluster">
<title>cluster_SharedModule</title>
<polygon fill="none" stroke="#000000" stroke-dasharray="1,5" points="8,-70 8,-268 2907,-268 2907,-70 8,-70"/>
</g>
<g id="clust2" class="cluster">
<title>cluster_SharedModule_declarations</title>
<polygon fill="none" stroke="#000000" points="1473,-78 1473,-130 2899,-130 2899,-78 1473,-78"/>
</g>
<g id="clust11" class="cluster">
<title>cluster_SharedModule_imports</title>
<polygon fill="none" stroke="#000000" points="794,-78 794,-130 1465,-130 1465,-78 794,-78"/>
</g>
<g id="clust12" class="cluster">
<title>cluster_SharedModule_exports</title>
<polygon fill="none" stroke="#000000" points="1117,-208 1117,-260 2157,-260 2157,-208 1117,-208"/>
</g>
<g id="clust14" class="cluster">
<title>cluster_SharedModule_providers</title>
<polygon fill="none" stroke="#000000" points="16,-78 16,-130 786,-130 786,-78 16,-78"/>
</g>
<!-- MovieBookingComponent -->
<g id="node1" class="node">
<title>MovieBookingComponent</title>
<polygon fill="#ffffb3" stroke="#000000" points="2891.1094,-122 2724.8906,-122 2724.8906,-86 2891.1094,-86 2891.1094,-122"/>
<text text-anchor="middle" x="2808" y="-99.8" font-family="Times,serif" font-size="14.00" fill="#000000">MovieBookingComponent</text>
</g>
<!-- SharedModule -->
<g id="node9" class="node">
<title>SharedModule</title>
<polygon fill="#8dd3c7" stroke="#000000" points="1604.4231,-187 1601.4231,-191 1580.4231,-191 1577.4231,-187 1505.5769,-187 1505.5769,-151 1604.4231,-151 1604.4231,-187"/>
<text text-anchor="middle" x="1555" y="-164.8" font-family="Times,serif" font-size="14.00" fill="#000000">SharedModule</text>
</g>
<!-- MovieBookingComponent&#45;&gt;SharedModule -->
<g id="edge1" class="edge">
<title>MovieBookingComponent&#45;&gt;SharedModule</title>
<path fill="none" stroke="#000000" d="M2808,-122.0449C2808,-143.6623 2808,-177 2808,-177 2808,-177 1614.505,-177 1614.505,-177"/>
<polygon fill="#000000" stroke="#000000" points="1614.505,-173.5001 1604.505,-177 1614.505,-180.5001 1614.505,-173.5001"/>
</g>
<!-- SeatReservationModalComponent -->
<g id="node2" class="node">
<title>SeatReservationModalComponent</title>
<polygon fill="#ffffb3" stroke="#000000" points="2707.3515,-122 2498.6485,-122 2498.6485,-86 2707.3515,-86 2707.3515,-122"/>
<text text-anchor="middle" x="2603" y="-99.8" font-family="Times,serif" font-size="14.00" fill="#000000">SeatReservationModalComponent</text>
</g>
<!-- SeatReservationModalComponent&#45;&gt;SharedModule -->
<g id="edge2" class="edge">
<title>SeatReservationModalComponent&#45;&gt;SharedModule</title>
<path fill="none" stroke="#000000" d="M2603,-122.1289C2603,-142.5724 2603,-173 2603,-173 2603,-173 1614.4913,-173 1614.4913,-173"/>
<polygon fill="#000000" stroke="#000000" points="1614.4914,-169.5001 1604.4913,-173 1614.4913,-176.5001 1614.4914,-169.5001"/>
</g>
<!-- MovieDropdownsComponent -->
<g id="node3" class="node">
<title>MovieDropdownsComponent</title>
<polygon fill="#ffffb3" stroke="#000000" points="2480.7007,-122 2297.2993,-122 2297.2993,-86 2480.7007,-86 2480.7007,-122"/>
<text text-anchor="middle" x="2389" y="-99.8" font-family="Times,serif" font-size="14.00" fill="#000000">MovieDropdownsComponent</text>
</g>
<!-- MovieDropdownsComponent&#45;&gt;SharedModule -->
<g id="edge3" class="edge">
<title>MovieDropdownsComponent&#45;&gt;SharedModule</title>
<path fill="none" stroke="#000000" d="M2389,-122.1061C2389,-141.3391 2389,-169 2389,-169 2389,-169 1614.3645,-169 1614.3645,-169"/>
<polygon fill="#000000" stroke="#000000" points="1614.3645,-165.5001 1604.3645,-169 1614.3644,-172.5001 1614.3645,-165.5001"/>
</g>
<!-- ConfirmationModalComponent -->
<g id="node4" class="node">
<title>ConfirmationModalComponent</title>
<polygon fill="#ffffb3" stroke="#000000" points="2279.8173,-122 2086.1827,-122 2086.1827,-86 2279.8173,-86 2279.8173,-122"/>
<text text-anchor="middle" x="2183" y="-99.8" font-family="Times,serif" font-size="14.00" fill="#000000">ConfirmationModalComponent</text>
</g>
<!-- ConfirmationModalComponent&#45;&gt;SharedModule -->
<g id="edge4" class="edge">
<title>ConfirmationModalComponent&#45;&gt;SharedModule</title>
<path fill="none" stroke="#000000" d="M2117.5731,-122.2667C2117.5731,-140.5552 2117.5731,-166 2117.5731,-166 2117.5731,-166 1614.4316,-166 1614.4316,-166"/>
<polygon fill="#000000" stroke="#000000" points="1614.4316,-162.5001 1604.4316,-166 1614.4315,-169.5001 1614.4316,-162.5001"/>
</g>
<!-- PaymentBookingComponent -->
<g id="node5" class="node">
<title>PaymentBookingComponent</title>
<polygon fill="#ffffb3" stroke="#000000" points="2068.0532,-122 1889.9468,-122 1889.9468,-86 2068.0532,-86 2068.0532,-122"/>
<text text-anchor="middle" x="1979" y="-99.8" font-family="Times,serif" font-size="14.00" fill="#000000">PaymentBookingComponent</text>
</g>
<!-- PaymentBookingComponent&#45;&gt;SharedModule -->
<g id="edge5" class="edge">
<title>PaymentBookingComponent&#45;&gt;SharedModule</title>
<path fill="none" stroke="#000000" d="M1925.4497,-122.0336C1925.4497,-139.0597 1925.4497,-162 1925.4497,-162 1925.4497,-162 1614.5761,-162 1614.5761,-162"/>
<polygon fill="#000000" stroke="#000000" points="1614.5761,-158.5001 1604.5761,-162 1614.5761,-165.5001 1614.5761,-158.5001"/>
</g>
<!-- SortMoviePipe -->
<g id="node6" class="node">
<title>SortMoviePipe</title>
<polygon fill="#ffffb3" stroke="#000000" points="1871.2717,-122 1770.7283,-122 1770.7283,-86 1871.2717,-86 1871.2717,-122"/>
<text text-anchor="middle" x="1821" y="-99.8" font-family="Times,serif" font-size="14.00" fill="#000000">SortMoviePipe</text>
</g>
<!-- SortMoviePipe&#45;&gt;SharedModule -->
<g id="edge6" class="edge">
<title>SortMoviePipe&#45;&gt;SharedModule</title>
<path fill="none" stroke="#000000" d="M1821,-122.0091C1821,-138.0494 1821,-159 1821,-159 1821,-159 1614.4092,-159 1614.4092,-159"/>
<polygon fill="#000000" stroke="#000000" points="1614.4092,-155.5001 1604.4092,-159 1614.4091,-162.5001 1614.4092,-155.5001"/>
</g>
<!-- HomeFilterPipe -->
<g id="node7" class="node">
<title>HomeFilterPipe</title>
<polygon fill="#ffffb3" stroke="#000000" points="1752.9301,-122 1647.0699,-122 1647.0699,-86 1752.9301,-86 1752.9301,-122"/>
<text text-anchor="middle" x="1700" y="-99.8" font-family="Times,serif" font-size="14.00" fill="#000000">HomeFilterPipe</text>
</g>
<!-- HomeFilterPipe&#45;&gt;SharedModule -->
<g id="edge7" class="edge">
<title>HomeFilterPipe&#45;&gt;SharedModule</title>
<path fill="none" stroke="#000000" d="M1688.8179,-122.1243C1688.8179,-136.7832 1688.8179,-155 1688.8179,-155 1688.8179,-155 1614.4486,-155 1614.4486,-155"/>
<polygon fill="#000000" stroke="#000000" points="1614.4487,-151.5001 1604.4486,-155 1614.4486,-158.5001 1614.4487,-151.5001"/>
</g>
<!-- PreBookingComponent -->
<g id="node8" class="node">
<title>PreBookingComponent</title>
<polygon fill="#ffffb3" stroke="#000000" points="1629.2176,-122 1480.7824,-122 1480.7824,-86 1629.2176,-86 1629.2176,-122"/>
<text text-anchor="middle" x="1555" y="-99.8" font-family="Times,serif" font-size="14.00" fill="#000000">PreBookingComponent</text>
</g>
<!-- PreBookingComponent&#45;&gt;SharedModule -->
<g id="edge8" class="edge">
<title>PreBookingComponent&#45;&gt;SharedModule</title>
<path fill="none" stroke="#000000" d="M1555,-122.1061C1555,-122.1061 1555,-140.991 1555,-140.991"/>
<polygon fill="#000000" stroke="#000000" points="1551.5001,-140.9909 1555,-150.991 1558.5001,-140.991 1551.5001,-140.9909"/>
</g>
<!-- MovieBookingComponent  -->
<g id="node15" class="node">
<title>MovieBookingComponent </title>
<polygon fill="#fb8072" stroke="#000000" points="2148.6098,-252 1979.3902,-252 1979.3902,-216 2148.6098,-216 2148.6098,-252"/>
<text text-anchor="middle" x="2064" y="-229.8" font-family="Times,serif" font-size="14.00" fill="#000000">MovieBookingComponent </text>
</g>
<!-- SharedModule&#45;&gt;MovieBookingComponent  -->
<g id="edge14" class="edge">
<title>SharedModule&#45;&gt;MovieBookingComponent </title>
<path fill="none" stroke="#000000" stroke-dasharray="5,2" d="M1604.277,-180C1724.6231,-180 2023.7358,-180 2023.7358,-180 2023.7358,-180 2023.7358,-205.7181 2023.7358,-205.7181"/>
<polygon fill="#000000" stroke="#000000" points="2020.2359,-205.718 2023.7358,-215.7181 2027.2359,-205.7181 2020.2359,-205.718"/>
</g>
<!-- SeatReservationModalComponent  -->
<g id="node16" class="node">
<title>SeatReservationModalComponent </title>
<polygon fill="#fb8072" stroke="#000000" points="1961.3517,-252 1748.6483,-252 1748.6483,-216 1961.3517,-216 1961.3517,-252"/>
<text text-anchor="middle" x="1855" y="-229.8" font-family="Times,serif" font-size="14.00" fill="#000000">SeatReservationModalComponent </text>
</g>
<!-- SharedModule&#45;&gt;SeatReservationModalComponent  -->
<g id="edge15" class="edge">
<title>SharedModule&#45;&gt;SeatReservationModalComponent </title>
<path fill="none" stroke="#000000" stroke-dasharray="5,2" d="M1604.2387,-184C1665.3658,-184 1761.6645,-184 1761.6645,-184 1761.6645,-184 1761.6645,-205.9489 1761.6645,-205.9489"/>
<polygon fill="#000000" stroke="#000000" points="1758.1645,-205.9488 1761.6645,-215.9489 1765.1645,-205.9489 1758.1645,-205.9488"/>
</g>
<!-- MovieDropdownsComponent  -->
<g id="node17" class="node">
<title>MovieDropdownsComponent </title>
<polygon fill="#fb8072" stroke="#000000" points="1730.2008,-252 1543.7992,-252 1543.7992,-216 1730.2008,-216 1730.2008,-252"/>
<text text-anchor="middle" x="1637" y="-229.8" font-family="Times,serif" font-size="14.00" fill="#000000">MovieDropdownsComponent </text>
</g>
<!-- SharedModule&#45;&gt;MovieDropdownsComponent  -->
<g id="edge16" class="edge">
<title>SharedModule&#45;&gt;MovieDropdownsComponent </title>
<path fill="none" stroke="#000000" stroke-dasharray="5,2" d="M1573.9304,-187.1061C1573.9304,-187.1061 1573.9304,-205.991 1573.9304,-205.991"/>
<polygon fill="#000000" stroke="#000000" points="1570.4305,-205.9909 1573.9304,-215.991 1577.4305,-205.991 1570.4305,-205.9909"/>
</g>
<!-- SortMoviePipe  -->
<g id="node18" class="node">
<title>SortMoviePipe </title>
<polygon fill="#fb8072" stroke="#000000" points="1526.2718,-252 1421.7282,-252 1421.7282,-216 1526.2718,-216 1526.2718,-252"/>
<text text-anchor="middle" x="1474" y="-229.8" font-family="Times,serif" font-size="14.00" fill="#000000">SortMoviePipe </text>
</g>
<!-- SharedModule&#45;&gt;SortMoviePipe  -->
<g id="edge17" class="edge">
<title>SharedModule&#45;&gt;SortMoviePipe </title>
<path fill="none" stroke="#000000" stroke-dasharray="5,2" d="M1515.9623,-187.1061C1515.9623,-187.1061 1515.9623,-205.991 1515.9623,-205.991"/>
<polygon fill="#000000" stroke="#000000" points="1512.4624,-205.9909 1515.9623,-215.991 1519.4624,-205.991 1512.4624,-205.9909"/>
</g>
<!-- HomeFilterPipe  -->
<g id="node19" class="node">
<title>HomeFilterPipe </title>
<polygon fill="#fb8072" stroke="#000000" points="1403.4292,-252 1294.5708,-252 1294.5708,-216 1403.4292,-216 1403.4292,-252"/>
<text text-anchor="middle" x="1349" y="-229.8" font-family="Times,serif" font-size="14.00" fill="#000000">HomeFilterPipe </text>
</g>
<!-- SharedModule&#45;&gt;HomeFilterPipe  -->
<g id="edge18" class="edge">
<title>SharedModule&#45;&gt;HomeFilterPipe </title>
<path fill="none" stroke="#000000" stroke-dasharray="5,2" d="M1505.5398,-184C1454.5369,-184 1382.4003,-184 1382.4003,-184 1382.4003,-184 1382.4003,-205.9489 1382.4003,-205.9489"/>
<polygon fill="#000000" stroke="#000000" points="1378.9003,-205.9488 1382.4003,-215.9489 1385.9003,-205.9489 1378.9003,-205.9488"/>
</g>
<!-- PreBookingComponent  -->
<g id="node20" class="node">
<title>PreBookingComponent </title>
<polygon fill="#fb8072" stroke="#000000" points="1276.7177,-252 1125.2823,-252 1125.2823,-216 1276.7177,-216 1276.7177,-252"/>
<text text-anchor="middle" x="1201" y="-229.8" font-family="Times,serif" font-size="14.00" fill="#000000">PreBookingComponent </text>
</g>
<!-- SharedModule&#45;&gt;PreBookingComponent  -->
<g id="edge19" class="edge">
<title>SharedModule&#45;&gt;PreBookingComponent </title>
<path fill="none" stroke="#000000" stroke-dasharray="5,2" d="M1505.4458,-180C1416.2483,-180 1237.8533,-180 1237.8533,-180 1237.8533,-180 1237.8533,-205.7181 1237.8533,-205.7181"/>
<polygon fill="#000000" stroke="#000000" points="1234.3533,-205.718 1237.8533,-215.7181 1241.3533,-205.7181 1234.3533,-205.718"/>
</g>
<!-- FormsModule -->
<g id="node10" class="node">
<title>FormsModule</title>
<polygon fill="#8dd3c7" stroke="#000000" points="1456.8288,-122 1453.8288,-126 1432.8288,-126 1429.8288,-122 1361.1712,-122 1361.1712,-86 1456.8288,-86 1456.8288,-122"/>
<text text-anchor="middle" x="1409" y="-99.8" font-family="Times,serif" font-size="14.00" fill="#000000">FormsModule</text>
</g>
<!-- FormsModule&#45;&gt;SharedModule -->
<g id="edge9" class="edge">
<title>FormsModule&#45;&gt;SharedModule</title>
<path fill="none" stroke="#000000" d="M1439.2642,-122.1243C1439.2642,-136.7832 1439.2642,-155 1439.2642,-155 1439.2642,-155 1495.5819,-155 1495.5819,-155"/>
<polygon fill="#000000" stroke="#000000" points="1495.5819,-158.5001 1505.5819,-155 1495.5819,-151.5001 1495.5819,-158.5001"/>
</g>
<!-- ReactiveFormsModule -->
<g id="node11" class="node">
<title>ReactiveFormsModule</title>
<polygon fill="#8dd3c7" stroke="#000000" points="1343.3047,-122 1340.3047,-126 1319.3047,-126 1316.3047,-122 1198.6953,-122 1198.6953,-86 1343.3047,-86 1343.3047,-122"/>
<text text-anchor="middle" x="1271" y="-99.8" font-family="Times,serif" font-size="14.00" fill="#000000">ReactiveFormsModule</text>
</g>
<!-- ReactiveFormsModule&#45;&gt;SharedModule -->
<g id="edge10" class="edge">
<title>ReactiveFormsModule&#45;&gt;SharedModule</title>
<path fill="none" stroke="#000000" d="M1318.8438,-122.0091C1318.8438,-138.0494 1318.8438,-159 1318.8438,-159 1318.8438,-159 1495.7814,-159 1495.7814,-159"/>
<polygon fill="#000000" stroke="#000000" points="1495.7814,-162.5001 1505.7814,-159 1495.7813,-155.5001 1495.7814,-162.5001"/>
</g>
<!-- CommonModule -->
<g id="node12" class="node">
<title>CommonModule</title>
<polygon fill="#8dd3c7" stroke="#000000" points="1180.6681,-122 1177.6681,-126 1156.6681,-126 1153.6681,-122 1069.3319,-122 1069.3319,-86 1180.6681,-86 1180.6681,-122"/>
<text text-anchor="middle" x="1125" y="-99.8" font-family="Times,serif" font-size="14.00" fill="#000000">CommonModule</text>
</g>
<!-- CommonModule&#45;&gt;SharedModule -->
<g id="edge11" class="edge">
<title>CommonModule&#45;&gt;SharedModule</title>
<path fill="none" stroke="#000000" d="M1152.9875,-122.0336C1152.9875,-139.0597 1152.9875,-162 1152.9875,-162 1152.9875,-162 1495.7054,-162 1495.7054,-162"/>
<polygon fill="#000000" stroke="#000000" points="1495.7054,-165.5001 1505.7054,-162 1495.7053,-158.5001 1495.7054,-165.5001"/>
</g>
<!-- MaterialModule -->
<g id="node13" class="node">
<title>MaterialModule</title>
<polygon fill="#8dd3c7" stroke="#000000" points="1051.4706,-122 1048.4706,-126 1027.4706,-126 1024.4706,-122 944.5294,-122 944.5294,-86 1051.4706,-86 1051.4706,-122"/>
<text text-anchor="middle" x="998" y="-99.8" font-family="Times,serif" font-size="14.00" fill="#000000">MaterialModule</text>
</g>
<!-- MaterialModule&#45;&gt;SharedModule -->
<g id="edge12" class="edge">
<title>MaterialModule&#45;&gt;SharedModule</title>
<path fill="none" stroke="#000000" d="M998,-122.2667C998,-140.5552 998,-166 998,-166 998,-166 1495.57,-166 1495.57,-166"/>
<polygon fill="#000000" stroke="#000000" points="1495.57,-169.5001 1505.57,-166 1495.5699,-162.5001 1495.57,-169.5001"/>
</g>
<!-- FlexLayoutModule -->
<g id="node14" class="node">
<title>FlexLayoutModule</title>
<polygon fill="#8dd3c7" stroke="#000000" points="926.0954,-122 923.0954,-126 902.0954,-126 899.0954,-122 801.9046,-122 801.9046,-86 926.0954,-86 926.0954,-122"/>
<text text-anchor="middle" x="864" y="-99.8" font-family="Times,serif" font-size="14.00" fill="#000000">FlexLayoutModule</text>
</g>
<!-- FlexLayoutModule&#45;&gt;SharedModule -->
<g id="edge13" class="edge">
<title>FlexLayoutModule&#45;&gt;SharedModule</title>
<path fill="none" stroke="#000000" d="M864,-122.1061C864,-141.3391 864,-169 864,-169 864,-169 1495.5823,-169 1495.5823,-169"/>
<polygon fill="#000000" stroke="#000000" points="1495.5823,-172.5001 1505.5823,-169 1495.5823,-165.5001 1495.5823,-172.5001"/>
</g>
<!-- { provide: MatDialogRef, useValue: &#160;} -->
<g id="node21" class="node">
<title>{ provide: MatDialogRef, useValue: &#160;}</title>
<ellipse fill="#fdb462" stroke="#000000" cx="617" cy="-104" rx="161.2267" ry="18"/>
<text text-anchor="middle" x="617" y="-99.8" font-family="Times,serif" font-size="14.00" fill="#000000">{ provide: MatDialogRef, useValue: &#160;}</text>
</g>
<!-- { provide: MatDialogRef, useValue: &#160;}&#45;&gt;SharedModule -->
<g id="edge20" class="edge">
<title>{ provide: MatDialogRef, useValue: &#160;}&#45;&gt;SharedModule</title>
<path fill="none" stroke="#000000" d="M617,-122.1289C617,-142.5724 617,-173 617,-173 617,-173 1495.561,-173 1495.561,-173"/>
<polygon fill="#000000" stroke="#000000" points="1495.561,-176.5001 1505.561,-173 1495.561,-169.5001 1495.561,-176.5001"/>
</g>
<!-- { provide: MAT_DIALOG_DATA, useValue: [] } -->
<g id="node22" class="node">
<title>{ provide: MAT_DIALOG_DATA, useValue: [] }</title>
<ellipse fill="#fdb462" stroke="#000000" cx="231" cy="-104" rx="206.8785" ry="18"/>
<text text-anchor="middle" x="231" y="-99.8" font-family="Times,serif" font-size="14.00" fill="#000000">{ provide: MAT_DIALOG_DATA, useValue: [] }</text>
</g>
<!-- { provide: MAT_DIALOG_DATA, useValue: [] }&#45;&gt;SharedModule -->
<g id="edge21" class="edge">
<title>{ provide: MAT_DIALOG_DATA, useValue: [] }&#45;&gt;SharedModule</title>
<path fill="none" stroke="#000000" d="M231,-122.0449C231,-143.6623 231,-177 231,-177 231,-177 1495.5141,-177 1495.5141,-177"/>
<polygon fill="#000000" stroke="#000000" points="1495.5141,-180.5001 1505.5141,-177 1495.514,-173.5001 1495.5141,-180.5001"/>
</g>
</g>
</svg>
