<?xml version="1.0" encoding="UTF-8" standalone="no"?>
<!DOCTYPE svg PUBLIC "-//W3C//DTD SVG 1.1//EN"
 "http://www.w3.org/Graphics/SVG/1.1/DTD/svg11.dtd">
<!-- Generated by graphviz version 2.40.1 (20161225.0304)
 -->
<!-- Title: dependencies Pages: 1 -->
<svg width="1564pt" height="211pt"
 viewBox="0.00 0.00 1564.00 211.00" xmlns="http://www.w3.org/2000/svg" xmlns:xlink="http://www.w3.org/1999/xlink">
<g id="graph0" class="graph" transform="scale(1 1) rotate(0) translate(4 207)">
<title>dependencies</title>
<polygon fill="#ffffff" stroke="transparent" points="-4,4 -4,-207 1560,-207 1560,4 -4,4"/>
<text text-anchor="start" x="757.0091" y="-42.4" font-family="sans-serif" font-weight="bold" font-size="14.00" fill="#000000">Legend</text>
<polygon fill="#ffffb3" stroke="transparent" points="544,-10 544,-30 564,-30 564,-10 544,-10"/>
<text text-anchor="start" x="567.629" y="-15.4" font-family="sans-serif" font-size="14.00" fill="#000000"> &#160;Declarations</text>
<polygon fill="#8dd3c7" stroke="transparent" points="657,-10 657,-30 677,-30 677,-10 657,-10"/>
<text text-anchor="start" x="680.7251" y="-15.4" font-family="sans-serif" font-size="14.00" fill="#000000"> &#160;Module</text>
<polygon fill="#80b1d3" stroke="transparent" points="743,-10 743,-30 763,-30 763,-10 743,-10"/>
<text text-anchor="start" x="766.7812" y="-15.4" font-family="sans-serif" font-size="14.00" fill="#000000"> &#160;Bootstrap</text>
<polygon fill="#fdb462" stroke="transparent" points="840,-10 840,-30 860,-30 860,-10 840,-10"/>
<text text-anchor="start" x="863.6732" y="-15.4" font-family="sans-serif" font-size="14.00" fill="#000000"> &#160;Providers</text>
<polygon fill="#fb8072" stroke="transparent" points="936,-10 936,-30 956,-30 956,-10 936,-10"/>
<text text-anchor="start" x="959.7258" y="-15.4" font-family="sans-serif" font-size="14.00" fill="#000000"> &#160;Exports</text>
<g id="clust1" class="cluster">
<title>cluster_SearchModule</title>
<polygon fill="none" stroke="#000000" stroke-dasharray="1,5" points="8,-70 8,-195 1548,-195 1548,-70 8,-70"/>
</g>
<g id="clust2" class="cluster">
<title>cluster_SearchModule_declarations</title>
<polygon fill="none" stroke="#000000" points="1080,-78 1080,-130 1540,-130 1540,-78 1080,-78"/>
</g>
<g id="clust6" class="cluster">
<title>cluster_SearchModule_imports</title>
<polygon fill="none" stroke="#000000" points="16,-78 16,-130 1072,-130 1072,-78 16,-78"/>
</g>
<!-- SDialogComponent -->
<g id="node1" class="node">
<title>SDialogComponent</title>
<polygon fill="#ffffb3" stroke="#000000" points="1531.7176,-122 1404.2824,-122 1404.2824,-86 1531.7176,-86 1531.7176,-122"/>
<text text-anchor="middle" x="1468" y="-99.8" font-family="Times,serif" font-size="14.00" fill="#000000">SDialogComponent</text>
</g>
<!-- SearchModule -->
<g id="node4" class="node">
<title>SearchModule</title>
<polygon fill="#8dd3c7" stroke="#000000" points="804.6375,-187 801.6375,-191 780.6375,-191 777.6375,-187 707.3625,-187 707.3625,-151 804.6375,-151 804.6375,-187"/>
<text text-anchor="middle" x="756" y="-164.8" font-family="Times,serif" font-size="14.00" fill="#000000">SearchModule</text>
</g>
<!-- SDialogComponent&#45;&gt;SearchModule -->
<g id="edge1" class="edge">
<title>SDialogComponent&#45;&gt;SearchModule</title>
<path fill="none" stroke="#000000" d="M1468,-122.0908C1468,-145.1328 1468,-182 1468,-182 1468,-182 814.6584,-182 814.6584,-182"/>
<polygon fill="#000000" stroke="#000000" points="814.6585,-178.5001 804.6584,-182 814.6584,-185.5001 814.6585,-178.5001"/>
</g>
<!-- SDialogCardsComponent -->
<g id="node2" class="node">
<title>SDialogCardsComponent</title>
<polygon fill="#ffffb3" stroke="#000000" points="1385.8738,-122 1226.1262,-122 1226.1262,-86 1385.8738,-86 1385.8738,-122"/>
<text text-anchor="middle" x="1306" y="-99.8" font-family="Times,serif" font-size="14.00" fill="#000000">SDialogCardsComponent</text>
</g>
<!-- SDialogCardsComponent&#45;&gt;SearchModule -->
<g id="edge2" class="edge">
<title>SDialogCardsComponent&#45;&gt;SearchModule</title>
<path fill="none" stroke="#000000" d="M1306,-122.2843C1306,-143.3211 1306,-175 1306,-175 1306,-175 814.8088,-175 814.8088,-175"/>
<polygon fill="#000000" stroke="#000000" points="814.8089,-171.5001 804.8088,-175 814.8088,-178.5001 814.8089,-171.5001"/>
</g>
<!-- SearchComponent -->
<g id="node3" class="node">
<title>SearchComponent</title>
<polygon fill="#ffffb3" stroke="#000000" points="1207.9201,-122 1088.0799,-122 1088.0799,-86 1207.9201,-86 1207.9201,-122"/>
<text text-anchor="middle" x="1148" y="-99.8" font-family="Times,serif" font-size="14.00" fill="#000000">SearchComponent</text>
</g>
<!-- SearchComponent&#45;&gt;SearchModule -->
<g id="edge3" class="edge">
<title>SearchComponent&#45;&gt;SearchModule</title>
<path fill="none" stroke="#000000" d="M1148,-122.1061C1148,-141.3391 1148,-169 1148,-169 1148,-169 814.8545,-169 814.8545,-169"/>
<polygon fill="#000000" stroke="#000000" points="814.8545,-165.5001 804.8545,-169 814.8544,-172.5001 814.8545,-165.5001"/>
</g>
<!-- CommonModule -->
<g id="node5" class="node">
<title>CommonModule</title>
<polygon fill="#8dd3c7" stroke="#000000" points="1063.6681,-122 1060.6681,-126 1039.6681,-126 1036.6681,-122 952.3319,-122 952.3319,-86 1063.6681,-86 1063.6681,-122"/>
<text text-anchor="middle" x="1008" y="-99.8" font-family="Times,serif" font-size="14.00" fill="#000000">CommonModule</text>
</g>
<!-- CommonModule&#45;&gt;SearchModule -->
<g id="edge4" class="edge">
<title>CommonModule&#45;&gt;SearchModule</title>
<path fill="none" stroke="#000000" d="M1008,-122.0225C1008,-139.3734 1008,-163 1008,-163 1008,-163 814.8869,-163 814.8869,-163"/>
<polygon fill="#000000" stroke="#000000" points="814.887,-159.5001 804.8869,-163 814.8869,-166.5001 814.887,-159.5001"/>
</g>
<!-- RouterModule -->
<g id="node6" class="node">
<title>RouterModule</title>
<polygon fill="#8dd3c7" stroke="#000000" points="933.6528,-122 930.6528,-126 909.6528,-126 906.6528,-122 836.3472,-122 836.3472,-86 933.6528,-86 933.6528,-122"/>
<text text-anchor="middle" x="885" y="-99.8" font-family="Times,serif" font-size="14.00" fill="#000000">RouterModule</text>
</g>
<!-- RouterModule&#45;&gt;SearchModule -->
<g id="edge5" class="edge">
<title>RouterModule&#45;&gt;SearchModule</title>
<path fill="none" stroke="#000000" d="M885,-122.2396C885,-137.5706 885,-157 885,-157 885,-157 814.7694,-157 814.7694,-157"/>
<polygon fill="#000000" stroke="#000000" points="814.7694,-153.5001 804.7694,-157 814.7693,-160.5001 814.7694,-153.5001"/>
</g>
<!-- FlexLayoutModule -->
<g id="node7" class="node">
<title>FlexLayoutModule</title>
<polygon fill="#8dd3c7" stroke="#000000" points="818.0954,-122 815.0954,-126 794.0954,-126 791.0954,-122 693.9046,-122 693.9046,-86 818.0954,-86 818.0954,-122"/>
<text text-anchor="middle" x="756" y="-99.8" font-family="Times,serif" font-size="14.00" fill="#000000">FlexLayoutModule</text>
</g>
<!-- FlexLayoutModule&#45;&gt;SearchModule -->
<g id="edge6" class="edge">
<title>FlexLayoutModule&#45;&gt;SearchModule</title>
<path fill="none" stroke="#000000" d="M756,-122.1061C756,-122.1061 756,-140.991 756,-140.991"/>
<polygon fill="#000000" stroke="#000000" points="752.5001,-140.9909 756,-150.991 759.5001,-140.991 752.5001,-140.9909"/>
</g>
<!-- LayoutModule -->
<g id="node8" class="node">
<title>LayoutModule</title>
<polygon fill="#8dd3c7" stroke="#000000" points="675.7078,-122 672.7078,-126 651.7078,-126 648.7078,-122 576.2922,-122 576.2922,-86 675.7078,-86 675.7078,-122"/>
<text text-anchor="middle" x="626" y="-99.8" font-family="Times,serif" font-size="14.00" fill="#000000">LayoutModule</text>
</g>
<!-- LayoutModule&#45;&gt;SearchModule -->
<g id="edge7" class="edge">
<title>LayoutModule&#45;&gt;SearchModule</title>
<path fill="none" stroke="#000000" d="M626,-122.2396C626,-137.5706 626,-157 626,-157 626,-157 697.2229,-157 697.2229,-157"/>
<polygon fill="#000000" stroke="#000000" points="697.223,-160.5001 707.2229,-157 697.2229,-153.5001 697.223,-160.5001"/>
</g>
<!-- FormsModule -->
<g id="node9" class="node">
<title>FormsModule</title>
<polygon fill="#8dd3c7" stroke="#000000" points="558.8288,-122 555.8288,-126 534.8288,-126 531.8288,-122 463.1712,-122 463.1712,-86 558.8288,-86 558.8288,-122"/>
<text text-anchor="middle" x="511" y="-99.8" font-family="Times,serif" font-size="14.00" fill="#000000">FormsModule</text>
</g>
<!-- FormsModule&#45;&gt;SearchModule -->
<g id="edge8" class="edge">
<title>FormsModule&#45;&gt;SearchModule</title>
<path fill="none" stroke="#000000" d="M511,-122.0225C511,-139.3734 511,-163 511,-163 511,-163 697.303,-163 697.303,-163"/>
<polygon fill="#000000" stroke="#000000" points="697.303,-166.5001 707.303,-163 697.3029,-159.5001 697.303,-166.5001"/>
</g>
<!-- ReactiveFormsModule -->
<g id="node10" class="node">
<title>ReactiveFormsModule</title>
<polygon fill="#8dd3c7" stroke="#000000" points="445.3047,-122 442.3047,-126 421.3047,-126 418.3047,-122 300.6953,-122 300.6953,-86 445.3047,-86 445.3047,-122"/>
<text text-anchor="middle" x="373" y="-99.8" font-family="Times,serif" font-size="14.00" fill="#000000">ReactiveFormsModule</text>
</g>
<!-- ReactiveFormsModule&#45;&gt;SearchModule -->
<g id="edge9" class="edge">
<title>ReactiveFormsModule&#45;&gt;SearchModule</title>
<path fill="none" stroke="#000000" d="M373,-122.1061C373,-141.3391 373,-169 373,-169 373,-169 697.1038,-169 697.1038,-169"/>
<polygon fill="#000000" stroke="#000000" points="697.1038,-172.5001 707.1038,-169 697.1037,-165.5001 697.1038,-172.5001"/>
</g>
<!-- SharedModule -->
<g id="node11" class="node">
<title>SharedModule</title>
<polygon fill="#8dd3c7" stroke="#000000" points="283.4231,-122 280.4231,-126 259.4231,-126 256.4231,-122 184.5769,-122 184.5769,-86 283.4231,-86 283.4231,-122"/>
<text text-anchor="middle" x="234" y="-99.8" font-family="Times,serif" font-size="14.00" fill="#000000">SharedModule</text>
</g>
<!-- SharedModule&#45;&gt;SearchModule -->
<g id="edge10" class="edge">
<title>SharedModule&#45;&gt;SearchModule</title>
<path fill="none" stroke="#000000" d="M234,-122.2843C234,-143.3211 234,-175 234,-175 234,-175 697.3603,-175 697.3603,-175"/>
<polygon fill="#000000" stroke="#000000" points="697.3603,-178.5001 707.3603,-175 697.3602,-171.5001 697.3603,-178.5001"/>
</g>
<!-- SearchRoutingModule -->
<g id="node12" class="node">
<title>SearchRoutingModule</title>
<polygon fill="#8dd3c7" stroke="#000000" points="166.2548,-122 163.2548,-126 142.2548,-126 139.2548,-122 23.7452,-122 23.7452,-86 166.2548,-86 166.2548,-122"/>
<text text-anchor="middle" x="95" y="-99.8" font-family="Times,serif" font-size="14.00" fill="#000000">SearchRoutingModule</text>
</g>
<!-- SearchRoutingModule&#45;&gt;SearchModule -->
<g id="edge11" class="edge">
<title>SearchRoutingModule&#45;&gt;SearchModule</title>
<path fill="none" stroke="#000000" d="M95,-122.0908C95,-145.1328 95,-182 95,-182 95,-182 697.1267,-182 697.1267,-182"/>
<polygon fill="#000000" stroke="#000000" points="697.1267,-185.5001 707.1267,-182 697.1266,-178.5001 697.1267,-185.5001"/>
</g>
</g>
</svg>
