<?xml version="1.0" encoding="UTF-8" standalone="no"?>
<!DOCTYPE svg PUBLIC "-//W3C//DTD SVG 1.1//EN"
 "http://www.w3.org/Graphics/SVG/1.1/DTD/svg11.dtd">
<!-- Generated by graphviz version 2.40.1 (20161225.0304)
 -->
<!-- Title: dependencies Pages: 1 -->
<svg width="1322pt" height="211pt"
 viewBox="0.00 0.00 1322.00 211.00" xmlns="http://www.w3.org/2000/svg" xmlns:xlink="http://www.w3.org/1999/xlink">
<g id="graph0" class="graph" transform="scale(1 1) rotate(0) translate(4 207)">
<title>dependencies</title>
<polygon fill="#ffffff" stroke="transparent" points="-4,4 -4,-207 1318,-207 1318,4 -4,4"/>
<text text-anchor="start" x="636.0091" y="-42.4" font-family="sans-serif" font-weight="bold" font-size="14.00" fill="#000000">Legend</text>
<polygon fill="#ffffb3" stroke="transparent" points="423,-10 423,-30 443,-30 443,-10 423,-10"/>
<text text-anchor="start" x="446.629" y="-15.4" font-family="sans-serif" font-size="14.00" fill="#000000"> &#160;Declarations</text>
<polygon fill="#8dd3c7" stroke="transparent" points="536,-10 536,-30 556,-30 556,-10 536,-10"/>
<text text-anchor="start" x="559.7251" y="-15.4" font-family="sans-serif" font-size="14.00" fill="#000000"> &#160;Module</text>
<polygon fill="#80b1d3" stroke="transparent" points="622,-10 622,-30 642,-30 642,-10 622,-10"/>
<text text-anchor="start" x="645.7812" y="-15.4" font-family="sans-serif" font-size="14.00" fill="#000000"> &#160;Bootstrap</text>
<polygon fill="#fdb462" stroke="transparent" points="719,-10 719,-30 739,-30 739,-10 719,-10"/>
<text text-anchor="start" x="742.6732" y="-15.4" font-family="sans-serif" font-size="14.00" fill="#000000"> &#160;Providers</text>
<polygon fill="#fb8072" stroke="transparent" points="815,-10 815,-30 835,-30 835,-10 815,-10"/>
<text text-anchor="start" x="838.7258" y="-15.4" font-family="sans-serif" font-size="14.00" fill="#000000"> &#160;Exports</text>
<g id="clust1" class="cluster">
<title>cluster_HomeModule</title>
<polygon fill="none" stroke="#000000" stroke-dasharray="1,5" points="8,-70 8,-195 1306,-195 1306,-70 8,-70"/>
</g>
<g id="clust2" class="cluster">
<title>cluster_HomeModule_declarations</title>
<polygon fill="none" stroke="#000000" points="843,-78 843,-130 1298,-130 1298,-78 843,-78"/>
</g>
<g id="clust6" class="cluster">
<title>cluster_HomeModule_imports</title>
<polygon fill="none" stroke="#000000" points="16,-78 16,-130 835,-130 835,-78 16,-78"/>
</g>
<!-- HomePageComponent -->
<g id="node1" class="node">
<title>HomePageComponent</title>
<polygon fill="#ffffb3" stroke="#000000" points="1290.2562,-122 1147.7438,-122 1147.7438,-86 1290.2562,-86 1290.2562,-122"/>
<text text-anchor="middle" x="1219" y="-99.8" font-family="Times,serif" font-size="14.00" fill="#000000">HomePageComponent</text>
</g>
<!-- HomeModule -->
<g id="node4" class="node">
<title>HomeModule</title>
<polygon fill="#8dd3c7" stroke="#000000" points="696.7619,-187 693.7619,-191 672.7619,-191 669.7619,-187 603.2381,-187 603.2381,-151 696.7619,-151 696.7619,-187"/>
<text text-anchor="middle" x="650" y="-164.8" font-family="Times,serif" font-size="14.00" fill="#000000">HomeModule</text>
</g>
<!-- HomePageComponent&#45;&gt;HomeModule -->
<g id="edge1" class="edge">
<title>HomePageComponent&#45;&gt;HomeModule</title>
<path fill="none" stroke="#000000" d="M1219,-122.0109C1219,-144.4852 1219,-180 1219,-180 1219,-180 707.0477,-180 707.0477,-180"/>
<polygon fill="#000000" stroke="#000000" points="707.0478,-176.5001 697.0477,-180 707.0477,-183.5001 707.0478,-176.5001"/>
</g>
<!-- HomeComponent -->
<g id="node2" class="node">
<title>HomeComponent</title>
<polygon fill="#ffffb3" stroke="#000000" points="1129.5451,-122 1014.4549,-122 1014.4549,-86 1129.5451,-86 1129.5451,-122"/>
<text text-anchor="middle" x="1072" y="-99.8" font-family="Times,serif" font-size="14.00" fill="#000000">HomeComponent</text>
</g>
<!-- HomeComponent&#45;&gt;HomeModule -->
<g id="edge2" class="edge">
<title>HomeComponent&#45;&gt;HomeModule</title>
<path fill="none" stroke="#000000" d="M1072,-122.1289C1072,-142.5724 1072,-173 1072,-173 1072,-173 706.7738,-173 706.7738,-173"/>
<polygon fill="#000000" stroke="#000000" points="706.7738,-169.5001 696.7738,-173 706.7737,-176.5001 706.7738,-169.5001"/>
</g>
<!-- MovieCardComponent -->
<g id="node3" class="node">
<title>MovieCardComponent</title>
<polygon fill="#ffffb3" stroke="#000000" points="996.594,-122 851.406,-122 851.406,-86 996.594,-86 996.594,-122"/>
<text text-anchor="middle" x="924" y="-99.8" font-family="Times,serif" font-size="14.00" fill="#000000">MovieCardComponent</text>
</g>
<!-- MovieCardComponent&#45;&gt;HomeModule -->
<g id="edge3" class="edge">
<title>MovieCardComponent&#45;&gt;HomeModule</title>
<path fill="none" stroke="#000000" d="M924,-122.2667C924,-140.5552 924,-166 924,-166 924,-166 706.791,-166 706.791,-166"/>
<polygon fill="#000000" stroke="#000000" points="706.791,-162.5001 696.791,-166 706.7909,-169.5001 706.791,-162.5001"/>
</g>
<!-- CommonModule -->
<g id="node5" class="node">
<title>CommonModule</title>
<polygon fill="#8dd3c7" stroke="#000000" points="826.6681,-122 823.6681,-126 802.6681,-126 799.6681,-122 715.3319,-122 715.3319,-86 826.6681,-86 826.6681,-122"/>
<text text-anchor="middle" x="771" y="-99.8" font-family="Times,serif" font-size="14.00" fill="#000000">CommonModule</text>
</g>
<!-- CommonModule&#45;&gt;HomeModule -->
<g id="edge4" class="edge">
<title>CommonModule&#45;&gt;HomeModule</title>
<path fill="none" stroke="#000000" d="M771,-122.0091C771,-138.0494 771,-159 771,-159 771,-159 706.7818,-159 706.7818,-159"/>
<polygon fill="#000000" stroke="#000000" points="706.7818,-155.5001 696.7818,-159 706.7817,-162.5001 706.7818,-155.5001"/>
</g>
<!-- FormsModule -->
<g id="node6" class="node">
<title>FormsModule</title>
<polygon fill="#8dd3c7" stroke="#000000" points="697.8288,-122 694.8288,-126 673.8288,-126 670.8288,-122 602.1712,-122 602.1712,-86 697.8288,-86 697.8288,-122"/>
<text text-anchor="middle" x="650" y="-99.8" font-family="Times,serif" font-size="14.00" fill="#000000">FormsModule</text>
</g>
<!-- FormsModule&#45;&gt;HomeModule -->
<g id="edge5" class="edge">
<title>FormsModule&#45;&gt;HomeModule</title>
<path fill="none" stroke="#000000" d="M650,-122.1061C650,-122.1061 650,-140.991 650,-140.991"/>
<polygon fill="#000000" stroke="#000000" points="646.5001,-140.9909 650,-150.991 653.5001,-140.991 646.5001,-140.9909"/>
</g>
<!-- ReactiveFormsModule -->
<g id="node7" class="node">
<title>ReactiveFormsModule</title>
<polygon fill="#8dd3c7" stroke="#000000" points="584.3047,-122 581.3047,-126 560.3047,-126 557.3047,-122 439.6953,-122 439.6953,-86 584.3047,-86 584.3047,-122"/>
<text text-anchor="middle" x="512" y="-99.8" font-family="Times,serif" font-size="14.00" fill="#000000">ReactiveFormsModule</text>
</g>
<!-- ReactiveFormsModule&#45;&gt;HomeModule -->
<g id="edge6" class="edge">
<title>ReactiveFormsModule&#45;&gt;HomeModule</title>
<path fill="none" stroke="#000000" d="M512,-122.0091C512,-138.0494 512,-159 512,-159 512,-159 592.8942,-159 592.8942,-159"/>
<polygon fill="#000000" stroke="#000000" points="592.8942,-162.5001 602.8942,-159 592.8942,-155.5001 592.8942,-162.5001"/>
</g>
<!-- HomeRoutingModule -->
<g id="node8" class="node">
<title>HomeRoutingModule</title>
<polygon fill="#8dd3c7" stroke="#000000" points="421.3795,-122 418.3795,-126 397.3795,-126 394.3795,-122 282.6205,-122 282.6205,-86 421.3795,-86 421.3795,-122"/>
<text text-anchor="middle" x="352" y="-99.8" font-family="Times,serif" font-size="14.00" fill="#000000">HomeRoutingModule</text>
</g>
<!-- HomeRoutingModule&#45;&gt;HomeModule -->
<g id="edge7" class="edge">
<title>HomeRoutingModule&#45;&gt;HomeModule</title>
<path fill="none" stroke="#000000" d="M352,-122.2667C352,-140.5552 352,-166 352,-166 352,-166 593.1097,-166 593.1097,-166"/>
<polygon fill="#000000" stroke="#000000" points="593.1097,-169.5001 603.1097,-166 593.1096,-162.5001 593.1097,-169.5001"/>
</g>
<!-- SharedModule -->
<g id="node9" class="node">
<title>SharedModule</title>
<polygon fill="#8dd3c7" stroke="#000000" points="264.4231,-122 261.4231,-126 240.4231,-126 237.4231,-122 165.5769,-122 165.5769,-86 264.4231,-86 264.4231,-122"/>
<text text-anchor="middle" x="215" y="-99.8" font-family="Times,serif" font-size="14.00" fill="#000000">SharedModule</text>
</g>
<!-- SharedModule&#45;&gt;HomeModule -->
<g id="edge8" class="edge">
<title>SharedModule&#45;&gt;HomeModule</title>
<path fill="none" stroke="#000000" d="M215,-122.1289C215,-142.5724 215,-173 215,-173 215,-173 593.0341,-173 593.0341,-173"/>
<polygon fill="#000000" stroke="#000000" points="593.0341,-176.5001 603.0341,-173 593.034,-169.5001 593.0341,-176.5001"/>
</g>
<!-- FlexLayoutModule -->
<g id="node10" class="node">
<title>FlexLayoutModule</title>
<polygon fill="#8dd3c7" stroke="#000000" points="148.0954,-122 145.0954,-126 124.0954,-126 121.0954,-122 23.9046,-122 23.9046,-86 148.0954,-86 148.0954,-122"/>
<text text-anchor="middle" x="86" y="-99.8" font-family="Times,serif" font-size="14.00" fill="#000000">FlexLayoutModule</text>
</g>
<!-- FlexLayoutModule&#45;&gt;HomeModule -->
<g id="edge9" class="edge">
<title>FlexLayoutModule&#45;&gt;HomeModule</title>
<path fill="none" stroke="#000000" d="M86,-122.0109C86,-144.4852 86,-180 86,-180 86,-180 592.8838,-180 592.8838,-180"/>
<polygon fill="#000000" stroke="#000000" points="592.8838,-183.5001 602.8838,-180 592.8837,-176.5001 592.8838,-183.5001"/>
</g>
</g>
</svg>
